<?xml version="1.0" encoding="UTF-8"?>
<svg id="Camada_2" xmlns="http://www.w3.org/2000/svg" viewBox="0 0 490.72 490.72">
  <defs>
    <style>
      .cls-1 {
        fill: #fff;
      }

      .cls-2 {
        fill: #3a3a3a;
      }
    </style>
  </defs>
  <g id="Camada_1-2" data-name="Camada_1">
    <g>
      <circle class="cls-2" cx="245.36" cy="245.36" r="245.36"/>
      <g>
        <path class="cls-1" d="M193.35,167.25c7.17,0,13.79.55,19.86,2.18,6.07,1.09,11.06,3.34,15.49,6.07s7.71,6.62,9.96,11.6c2.18,4.98,3.34,11.06,3.34,17.68,0,7.71-1.64,14.33-5.53,19.31-3.34,4.98-8.8,9.42-15.49,12.69,9.42,2.73,16.58,7.71,20.95,14.33,4.37,6.62,7.17,14.88,7.17,24.3,0,7.71-1.64,14.33-4.44,19.86-2.73,5.53-7.17,10.51-12.15,13.79-4.98,3.34-11.06,6.07-17.68,7.71-6.62,1.64-13.24,2.73-19.86,2.73l-73.98.14v-152.39h72.34ZM188.92,229.09c6.07,0,11.06-1.64,14.88-4.44s5.53-7.71,5.53-13.79c0-3.34-.55-6.62-1.64-8.8-1.09-2.18-2.73-3.89-4.98-5.53-2.18-1.09-4.44-2.18-7.17-2.73s-5.53-.55-8.8-.55h-32.01v35.9c0-.07,34.19-.07,34.19-.07ZM190.56,294.26c3.34,0,6.62-.55,9.42-1.09,2.73-.55,5.53-1.64,7.71-3.34s3.89-3.34,5.53-6.07c1.09-2.73,2.18-6.07,2.18-9.96,0-7.71-2.18-13.24-6.62-17.13-4.44-3.34-10.51-4.98-17.68-4.98h-36.38v42.52h35.83v.07Z"/>
        <path class="cls-1" d="M297.16,293.71c4.44,4.44,11.06,6.62,19.86,6.62,6.07,0,11.6-1.64,16.04-4.44,4.44-3.34,7.17-6.62,8.26-9.96h27.03c-4.44,13.24-11.06,22.66-19.86,28.73-8.8,5.53-19.31,8.8-32.01,8.8-8.8,0-16.58-1.64-23.75-4.44-7.17-2.73-12.69-6.62-17.68-12.15-4.98-4.98-8.8-11.06-11.06-18.22-2.73-7.17-3.89-14.88-3.89-23.75,0-8.26,1.09-16.04,3.89-23.2s6.62-13.24,11.6-18.77c4.98-4.98,11.06-9.42,17.68-12.15,7.17-2.73,14.33-4.44,23.2-4.44,9.42,0,17.68,1.64,24.84,5.53,7.17,3.89,12.69,8.26,17.13,14.88,4.44,6.07,7.71,13.24,9.96,20.95,1.09,7.71,1.64,15.49,1.09,24.3h-80.05c0,9.01,3.28,17.27,7.71,21.7ZM331.96,235.7c-3.89-3.89-9.96-6.07-17.13-6.07-4.98,0-8.8,1.09-12.15,2.73s-5.53,3.89-7.71,6.07c-2.18,2.18-3.34,4.98-3.89,7.71s-1.09,4.98-1.09,7.17h49.68c-1.09-8.19-3.89-13.72-7.71-17.61ZM283.37,177.76h61.83v14.88h-61.83v-14.88Z"/>
      </g>
    </g>
  </g>
</svg>