<?xml version="1.0" encoding="UTF-8"?>
<svg id="Camada_2" xmlns="http://www.w3.org/2000/svg" viewBox="0 0 490.72 490.72">
  <defs>
    <style>
      .cls-1 {
        fill: #fff;
        fill-rule: evenodd;
      }

      .cls-2 {
        fill: #3a3a3a;
      }
    </style>
  </defs>
  <g id="Camada_1-2" data-name="Camada_1">
    <g>
      <circle class="cls-2" cx="245.36" cy="245.36" r="245.36"/>
      <path class="cls-1" d="M245.36,118.82c-71.68,0-129.74,58.06-129.74,129.74,0,57.41,37.14,105.9,88.71,123.09,6.49,1.14,8.92-2.76,8.92-6.16,0-3.08-.16-13.3-.16-24.16-32.6,6-41.03-7.95-43.63-15.24-1.46-3.73-7.78-15.24-13.3-18.33-4.54-2.43-11.03-8.43-.16-8.6,10.22-.16,17.52,9.41,19.95,13.3,11.68,19.62,30.33,14.11,37.79,10.7,1.14-8.43,4.54-14.11,8.27-17.35-28.87-3.24-59.03-14.43-59.03-64.06,0-14.11,5.03-25.79,13.3-34.87-1.3-3.24-5.84-16.54,1.3-34.38,0,0,10.87-3.41,35.68,13.3,10.38-2.92,21.41-4.38,32.44-4.38s22.06,1.46,32.44,4.38c24.81-16.87,35.68-13.3,35.68-13.3,7.14,17.84,2.59,31.14,1.3,34.38,8.27,9.08,13.3,20.6,13.3,34.87,0,49.79-30.33,60.82-59.2,64.06,4.7,4.05,8.76,11.84,8.76,24,0,17.35-.16,31.3-.16,35.68,0,3.41,2.43,7.46,8.92,6.16,51.25-17.19,88.39-65.84,88.39-123.09,0-71.68-58.06-129.74-129.74-129.74Z"/>
    </g>
  </g>
</svg>